<?xml version="1.0" encoding="utf-8"?>
<!-- Generator: Adobe Illustrator 16.0.4, SVG Export Plug-In . SVG Version: 6.00 Build 0)  -->
<!DOCTYPE svg PUBLIC "-//W3C//DTD SVG 1.1//EN" "http://www.w3.org/Graphics/SVG/1.1/DTD/svg11.dtd">
<svg version="1.1" id="Layer_1" xmlns="http://www.w3.org/2000/svg" xmlns:xlink="http://www.w3.org/1999/xlink" x="0px" y="0px"
	 width="317.485px" height="119.643px" viewBox="0 0 317.485 119.643" enable-background="new 0 0 317.485 119.643"
	 xml:space="preserve">
<g>
	<path fill="#FFFFFF" d="M49.774,52.976c0,0-9.461-29.532,24.634-51.444C74.408,1.532,97.181,20.721,49.774,52.976z"/>
	<path fill="#231F20" d="M49.102,54.927l-0.505-1.575c-0.1-0.313-2.438-7.799-0.506-18.109C49.867,25.77,55.757,12.05,73.74,0.493
		L74.507,0l0.697,0.587c0.261,0.219,6.375,5.487,5.879,15.142C80.466,27.72,70.166,40.596,50.469,53.998L49.102,54.927z
		 M74.25,3.109C46.773,21.255,49.259,44.587,50.55,50.942c12.759-8.894,27.375-21.935,28.064-35.34
		C78.958,8.937,75.674,4.644,74.25,3.109z"/>
</g>
<path opacity="0.1" fill="#231F20" d="M73.751,7.797C50.122,19.898,54.188,39.894,54.188,39.894
	c2.057-1.093,3.938-2.171,5.658-3.235C59.221,29.716,60.776,18.375,73.751,7.797z"/>
<path opacity="0.1" fill="#231F20" d="M74.161,1.532c-0.138,0.088-0.273,0.177-0.409,0.266C77.848,8.541,81.735,24.81,48.6,48.18
	c0.356,3.013,0.927,4.796,0.927,4.796C96.933,20.721,74.161,1.532,74.161,1.532z"/>
<g>
	<path fill="#FFFFFF" d="M55.103,47.561c0,0,8.467-29.832,48.991-29.209C104.094,18.351,112.439,46.937,55.103,47.561z"/>
	<path fill="#231F20" d="M53.463,48.813l0.452-1.59c0.088-0.311,2.24-7.686,9.376-15.127c6.691-6.976,19.237-15.297,40.823-14.98
		l0.912,0.014l0.255,0.875c0.096,0.327,2.272,8.098-3.485,15.863c-7.15,9.646-22.855,14.668-46.678,14.927L53.463,48.813z
		 M102.848,19.292c-19.874,0-31.464,7.831-37.686,14.281c-4.834,5.011-7.283,10.149-8.292,12.653
		c15.551-0.346,34.945-3.224,42.939-14.007c3.974-5.361,3.617-9.927,3.281-12.927C103.01,19.292,102.929,19.292,102.848,19.292z"/>
</g>
<path opacity="0.1" fill="#231F20" d="M98.835,22.167c-29.499-0.208-35.687,21.575-35.687,21.575
	c2.359-0.026,4.565-0.116,6.633-0.262C72.691,36.355,80.114,25.708,98.835,22.167z"/>
<g>
	<path fill="#231F20" d="M46.319,34.184c-0.091,0-0.183-0.011-0.274-0.035c-0.595-0.151-0.955-0.756-0.804-1.351
		c2.786-10.976,5.106-27.247,1.541-29.057c-0.884-0.45-3.781-0.47-11.61,8.991c-0.391,0.474-1.092,0.541-1.565,0.148
		c-0.473-0.391-0.539-1.092-0.148-1.566c6.693-8.087,11.248-11.121,14.331-9.556c6.432,3.268,0.801,26.886-0.394,31.588
		C47.268,33.849,46.816,34.184,46.319,34.184z"/>
	
		<ellipse transform="matrix(0.7486 0.663 -0.663 0.7486 17.0248 -20.9458)" fill="#231F20" cx="36.132" cy="11.977" rx="2.508" ry="6.399"/>
</g>
<path opacity="0.1" fill="#231F20" d="M104.094,18.351c-0.869-0.014-1.717-0.008-2.556,0.006c0.294,7.104-3.285,24.605-45.245,26.14
	c-0.854,1.883-1.19,3.063-1.19,3.063C112.439,46.937,104.094,18.351,104.094,18.351z"/>
<g>
	<defs>
		<path id="SVGID_1_" d="M77.354,117.083c-0.661-2.828-1.312-5.646-0.229-8.272c2.134-5.171,6.049-9.252,9.266-12.506
			c8.185-8.281,15.607-23.537,9.335-41.616c-3.038-8.757-9.685-17.008-18.575-22.056c-9.465-5.374-21.448-7.145-33.479-2.905
			c-10.754,3.789-18.379,10.375-23.036,18.423c-5.446,9.415-6.714,20.906-2.377,33.411c3.196,9.212,8.711,16.244,15.832,20.617
			c14.04,8.624,22.366,6.926,28.395,8.051C66.8,111.035,71.38,113.5,77.354,117.083L77.354,117.083z"/>
	</defs>
	<clipPath id="SVGID_2_">
		<use xlink:href="#SVGID_1_"  overflow="visible"/>
	</clipPath>
	<g clip-path="url(#SVGID_2_)">
		<path fill-rule="evenodd" clip-rule="evenodd" fill="#231F20" d="M169.405,85.221c17.627,50.813-9.29,106.292-60.114,123.922
			c-50.822,17.631-106.315-9.259-123.942-60.072C-32.28,98.26-5.361,42.779,45.461,25.149
			C96.286,7.518,151.777,34.408,169.405,85.221z"/>
		<path fill-rule="evenodd" clip-rule="evenodd" fill="#FABA37" d="M136.18,96.746c11.089,31.968-6.251,67.01-38.727,78.277
			c-32.474,11.265-67.792-5.511-78.881-37.478c-11.09-31.967,6.251-67.009,38.726-78.276C89.773,48.004,125.09,64.78,136.18,96.746z
			"/>
		
			<ellipse transform="matrix(0.9448 -0.3277 0.3277 0.9448 -34.1198 31.8294)" fill-rule="evenodd" clip-rule="evenodd" fill="#231F20" cx="77.376" cy="117.146" rx="51.05" ry="51.032"/>
		
			<ellipse transform="matrix(0.9448 -0.3277 0.3277 0.9448 -34.1203 31.8299)" fill-rule="evenodd" clip-rule="evenodd" fill="#FABA37" cx="77.376" cy="117.146" rx="42.248" ry="41.582"/>
		
			<ellipse transform="matrix(0.9448 -0.3278 0.3278 0.9448 -34.1207 31.8309)" fill-rule="evenodd" clip-rule="evenodd" fill="#231F20" cx="77.376" cy="117.146" rx="33.447" ry="32.132"/>
		
			<ellipse transform="matrix(0.9448 -0.3277 0.3277 0.9448 -34.1196 31.8293)" fill-rule="evenodd" clip-rule="evenodd" fill="#FABA37" cx="77.376" cy="117.146" rx="24.645" ry="22.681"/>
		
			<ellipse transform="matrix(0.9448 -0.3277 0.3277 0.9448 -34.1197 31.8292)" fill-rule="evenodd" clip-rule="evenodd" fill="#231F20" cx="77.376" cy="117.146" rx="15.843" ry="13.231"/>
	</g>
</g>
<g>
	<path fill="#231F20" d="M33.959,37.831c-0.411,0-0.806-0.043-0.999-0.437c-0.09-0.184-9.1-18.103-18.57-18.103
		c-0.042,0-0.083,0-0.125,0c-4.197,0-8.013,3.67-11.342,11.062c-0.251,0.56-0.91,0.717-1.47,0.464
		c-0.56-0.252-0.81-0.956-0.558-1.516c3.713-8.247,8.2-12.496,13.333-12.581c0.052-0.001,0.105-0.013,0.157-0.013
		c10.855,0,20.177,18.725,20.57,19.525c0.271,0.551,0.043,1.215-0.508,1.485C34.292,37.797,34.124,37.831,33.959,37.831z"/>
	
		<ellipse transform="matrix(0.8949 0.4463 -0.4463 0.8949 13.2993 1.5929)" fill="#231F20" cx="3.269" cy="29.026" rx="2.257" ry="5.758"/>
</g>
<g>
	<defs>
		<path id="SVGID_3_" d="M63.665,77.86c-22.042,7.647-33.814,31.434-26.287,53.132c7.527,21.698,31.501,33.087,53.544,25.438
			c22.043-7.646,33.813-31.433,26.286-53.132C109.681,81.601,85.708,70.213,63.665,77.86z M87.825,147.503
			c-17.45,6.054-36.313-2.629-42.13-19.396c-5.816-16.767,3.617-35.265,21.068-41.319c17.452-6.054,36.313,2.628,42.131,19.395
			C114.709,122.951,105.275,141.449,87.825,147.503z M69.859,95.717c-12.858,4.461-19.956,17.67-15.849,29.506
			c4.105,11.836,17.859,17.812,30.717,13.352s19.956-17.67,15.85-29.506C96.471,97.234,82.719,91.257,69.859,95.717z
			 M81.629,129.646c-8.266,2.868-16.909-0.403-19.304-7.308c-2.396-6.903,2.365-14.825,10.631-17.692s16.91,0.404,19.305,7.308
			C94.656,118.858,89.896,126.778,81.629,129.646z M57.216,59.27C24.742,70.536,7.4,105.579,18.49,137.545
			c11.089,31.967,46.407,48.742,78.881,37.478c32.475-11.267,49.815-46.309,38.726-78.277C125.007,64.78,89.691,48.004,57.216,59.27
			z M94.02,165.36c-26.635,9.24-55.718-4.852-64.957-31.482c-9.238-26.63,4.87-55.705,31.504-64.945
			c26.636-9.241,55.718,4.853,64.957,31.483C134.762,127.044,120.655,156.12,94.02,165.36z"/>
	</defs>
	<clipPath id="SVGID_4_">
		<use xlink:href="#SVGID_3_"  overflow="visible"/>
	</clipPath>
	<path opacity="0.2" clip-path="url(#SVGID_4_)" fill-rule="evenodd" clip-rule="evenodd" fill="#231F20" d="M77.082,108.811
		c0.302-0.73,0.643-1.438,1.008-2.126c-1.673-0.694-3.261-1.202-4.812-1.491c-6.029-1.125-14.354,0.573-28.395-8.052
		c-7.12-4.374-12.636-11.404-15.831-20.616c-4.338-12.504-3.069-23.997,2.376-33.412c3.113-5.379,7.553-10.104,13.365-13.778
		c-0.388,0.125-0.776,0.255-1.164,0.392C32.875,33.517,25.25,40.103,20.593,48.151c-5.446,9.415-6.714,20.906-2.377,33.411
		c3.196,9.212,8.711,16.244,15.832,20.617c14.041,8.624,22.366,6.926,28.395,8.051c4.314,0.805,8.893,3.271,14.868,6.853
		C76.651,114.255,76,111.437,77.082,108.811z"/>
</g>
<path fill="#231F20" d="M79.221,119.643l-2.501-1.5c-6.134-3.678-10.466-5.953-14.46-6.699c-1.328-0.248-2.781-0.353-4.464-0.472
	c-5.615-0.403-13.306-0.957-24.351-7.74c-7.462-4.583-13.117-11.936-16.352-21.265c-4.278-12.333-3.422-24.24,2.475-34.435
	c5.05-8.728,13.244-15.288,23.694-18.97c4.58-1.613,9.302-2.432,14.036-2.432c7.134,0,14.21,1.877,20.464,5.428
	c8.903,5.054,15.875,13.337,19.132,22.726c6.276,18.091-0.856,34.017-9.624,42.888c-2.739,2.772-6.878,6.958-9.002,12.11
	c-0.936,2.269-0.341,4.819,0.29,7.52L79.221,119.643z M57.297,28.602c-4.454,0-8.9,0.771-13.214,2.292
	c-9.889,3.483-17.626,9.665-22.377,17.876c-5.526,9.554-6.314,20.753-2.279,32.388c3.046,8.782,8.341,15.687,15.31,19.968
	c10.532,6.47,17.576,6.975,23.236,7.381c1.684,0.122,3.275,0.234,4.74,0.508c3.784,0.708,7.708,2.588,12.848,5.573
	c-0.356-2.076-0.431-4.175,0.422-6.247c2.311-5.601,6.655-9.996,9.53-12.904c8.245-8.343,14.952-23.322,9.047-40.343
	c-3.062-8.829-9.63-16.624-18.018-21.386C70.659,30.368,64.004,28.602,57.297,28.602z"/>
<g>
	<g>
		<path fill="#FFFFFF" d="M60.468,34.843c4.192,5.736,2.869,15.045-3.778,20.149c-8.467,6.471-20.763,2.38-25.006,5.679
			c-3.586,2.807-5.219,15.195-8.641,17.766c-3.641,2.734-7.506-0.288-9.201-2.544c-1.695-2.259-4.029-6.884-4.197-10.746
			c-0.165-3.862,0.217-5.629,2.365-7.014c2.786-1.75,14.155,2.469,17.614,0.099c4.334-3.026,6.784-18.875,13.994-24.29
			c4.37-3.281,6.173-3.609,8.341-3.757C55.291,30.075,58.133,31.585,60.468,34.843L60.468,34.843z"/>
		<path fill="#231F20" d="M52.297,30.18c3.187,0,5.916,1.516,8.17,4.664c4.192,5.736,2.869,15.045-3.778,20.149
			c-8.467,6.471-20.763,2.38-25.006,5.679c-3.586,2.807-5.219,15.195-8.641,17.766c-1.03,0.773-2.078,1.086-3.089,1.086
			c-2.565,0-4.896-2.011-6.112-3.63c-1.695-2.259-4.029-6.884-4.197-10.746c-0.165-3.862,0.217-5.629,2.365-7.014
			c0.504-0.317,1.291-0.438,2.261-0.438c3.15,0,8.239,1.28,11.904,1.28c1.436,0,2.652-0.196,3.449-0.743
			c4.334-3.026,6.784-18.875,13.994-24.29c4.37-3.281,6.173-3.609,8.341-3.757C52.072,30.182,52.186,30.18,52.297,30.18
			 M52.298,27.708L52.298,27.708c-0.14,0-0.28,0.002-0.421,0.007l-0.043,0.002l-0.043,0.003c-2.918,0.199-5.213,0.911-9.657,4.247
			c-4.584,3.442-7.25,10.043-9.604,15.866c-1.413,3.497-3.014,7.461-4.321,8.374c-0.028,0.019-0.479,0.297-2.035,0.297
			c-1.717,0-3.903-0.33-6.017-0.648c-2.153-0.324-4.186-0.631-5.887-0.631c-1.552,0-2.688,0.259-3.575,0.817
			c-3.522,2.271-3.677,5.515-3.519,9.212c0.214,4.934,3.161,10.087,4.689,12.123c1.677,2.233,4.682,4.618,8.088,4.618
			c1.636,0,3.175-0.532,4.572-1.58c2.307-1.734,3.594-5.51,5.083-9.883c1-2.934,2.369-6.952,3.597-7.914
			c1.125-0.874,4.207-0.963,7.188-1.05c5.447-0.157,12.225-0.354,17.796-4.611c7.466-5.734,9.421-16.526,4.272-23.571
			C59.769,29.625,56.345,27.708,52.298,27.708L52.298,27.708z"/>
	</g>
</g>
<g>
	<path fill="#FABA37" d="M139.126,44.067h-2.178l-8.583-13.302h-0.156l-0.026,7.831l0.078,5.471h-1.945l0.129-4.926l-0.078-11.696
		h2.178l8.557,13.304h0.182l-0.026-13.199l1.971-0.156l-0.156,11.799L139.126,44.067z"/>
	<path fill="#FABA37" d="M155.294,29.39c1.219,1.4,1.828,3.415,1.828,6.042c0,2.818-0.648,4.996-1.944,6.535
		c-1.297,1.539-3.138,2.308-5.523,2.308c-2.248,0-3.985-0.726-5.213-2.179c-1.227-1.452-1.841-3.517-1.841-6.197
		c0-2.766,0.644-4.892,1.932-6.379c1.287-1.487,3.133-2.23,5.537-2.23C152.334,27.29,154.076,27.99,155.294,29.39z M144.728,35.64
		c0,4.599,1.685,6.897,5.057,6.897c3.457,0,5.186-2.247,5.186-6.742c0-2.299-0.419-4.007-1.257-5.122
		c-0.839-1.115-2.114-1.672-3.825-1.672C146.447,29.001,144.728,31.214,144.728,35.64z"/>
	<path fill="#FABA37" d="M171.566,43.575l-0.026,0.259c-0.622,0.242-1.261,0.397-1.919,0.467l-0.285-0.182
		c-1.417-2.126-2.688-4.201-3.811-6.223h-3.035v0.985l0.104,5.186h-2.1l0.129-5.005l-0.129-11.617l5.082-0.025
		c1.625,0,2.882,0.411,3.773,1.232c0.89,0.821,1.336,1.992,1.336,3.514c0,1.14-0.299,2.165-0.895,3.073
		c-0.597,0.907-1.439,1.612-2.529,2.113C168.403,39.235,169.837,41.31,171.566,43.575z M165.628,36.21
		c1.936-0.553,2.904-1.841,2.904-3.863c0-2.058-1.141-3.129-3.424-3.216l-2.515,0.077l-0.078,6.924L165.628,36.21z"/>
	<path fill="#FABA37" d="M183.521,29.261l-2.904-0.156h-1.686l-0.078,9.776l0.078,5.186h-2.101l0.155-5.005l-0.13-9.957h-1.685
		l-2.957,0.156l-0.129-0.208l0.155-1.608h11.28l0.156,0.208L183.521,29.261z"/>
	<path fill="#FABA37" d="M199.495,44.067h-2.101l0.155-5.005l-0.025-2.489l-4.668-0.078l-4.201,0.078l-0.026,2.309l0.103,5.186h-2.1
		l0.13-5.005l-0.13-11.617h2.127l-0.079,7.313l4.358,0.078l4.459-0.078l-0.104-7.313h2.126l-0.104,11.437L199.495,44.067z"/>
	<path fill="#FABA37" d="M221.043,44.067l-3.242-9.646h-0.182l-3.423,9.646h-2.152l-5.29-16.622h2.075l0.286,1.608l4.044,12.707
		h0.182l3.579-10.113l-1.401-4.202h2.126l0.389,1.79l4.098,12.525h0.156l4.511-12.603l0.39-1.712h1.97l-5.963,16.622H221.043z"/>
	<path fill="#FABA37" d="M241.114,44.067h-9.336l0.13-5.005l-0.13-11.617h9.361l0.104,0.208l-0.156,1.608l-3.916-0.078l-3.293,0.051
		l-0.052,5.446l3.112,0.052l2.748-0.078l0.156,0.182l-0.181,1.608l-2.904-0.052l-2.957,0.025l-0.025,2.464l0.077,3.449l3.293,0.026
		l3.994-0.104l0.129,0.207L241.114,44.067z"/>
	<path fill="#FABA37" d="M252.497,28.093l-0.337,1.997l-0.363,0.104c-1.037-0.795-2.126-1.193-3.268-1.193
		c-0.639,0-1.197,0.13-1.672,0.389c-0.477,0.259-0.839,0.597-1.09,1.012c-0.25,0.414-0.375,0.847-0.375,1.296
		c0,0.467,0.143,0.877,0.428,1.231c0.285,0.355,0.645,0.661,1.077,0.92c0.431,0.259,1.02,0.571,1.763,0.934
		c0.934,0.432,1.686,0.834,2.256,1.206c0.57,0.371,1.06,0.842,1.465,1.413c0.407,0.57,0.61,1.262,0.61,2.074
		c0,0.864-0.233,1.66-0.701,2.385c-0.467,0.727-1.124,1.306-1.971,1.738c-0.847,0.433-1.816,0.648-2.904,0.648
		c-1.591,0-3.078-0.389-4.46-1.167l0.259-2.126l0.286-0.129c0.604,0.587,1.274,1.024,2.009,1.309
		c0.734,0.286,1.439,0.428,2.113,0.428c0.658,0,1.24-0.129,1.75-0.39c0.509-0.259,0.898-0.604,1.167-1.037
		c0.268-0.432,0.401-0.89,0.401-1.374c0-0.727-0.276-1.311-0.829-1.751c-0.554-0.441-1.392-0.921-2.516-1.439
		c-0.917-0.449-1.651-0.851-2.204-1.206c-0.554-0.353-1.029-0.812-1.426-1.374s-0.597-1.25-0.597-2.062
		c0-0.846,0.23-1.625,0.688-2.334c0.458-0.708,1.098-1.266,1.919-1.672c0.822-0.406,1.758-0.609,2.813-0.609
		C249.981,27.316,251.217,27.575,252.497,28.093z"/>
	<path fill="#FABA37" d="M265.67,29.261l-2.905-0.156h-1.686l-0.077,9.776l0.077,5.186h-2.1l0.157-5.005l-0.13-9.957h-1.685
		l-2.958,0.156l-0.13-0.208l0.156-1.608h11.281l0.155,0.208L265.67,29.261z"/>
	<path fill="#FFFFFF" d="M142.227,54.912c1.636,1.657,2.453,4.045,2.453,7.166c0,3.699-0.952,6.541-2.854,8.528
		c-1.902,1.988-4.628,2.981-8.176,2.981c-2.223,0-4.83-0.096-7.822-0.288l0.321-6.092l-0.321-14.651l9.362-0.128
		C138.247,52.428,140.593,53.256,142.227,54.912z M137.162,67.608c0.524-0.802,0.786-2.122,0.786-3.96
		c0-1.559-0.107-2.789-0.321-3.686c-0.214-0.898-0.556-1.544-1.025-1.94c-0.471-0.395-1.123-0.593-1.956-0.593
		c-0.812,0-1.615,0.043-2.404,0.128l-0.224,9.009l0.063,1.988c1.283,0.171,2.212,0.256,2.79,0.256
		C135.874,68.811,136.638,68.41,137.162,67.608z"/>
	<path fill="#FFFFFF" d="M165.423,71.792l-0.096,0.705c-2.181,0.663-4.329,1.059-6.445,1.187l-0.609-0.513
		c-1.368-2.928-2.288-4.947-2.757-6.059h-2.148l0.225,6.188h-6.444l0.32-6.092l-0.32-14.651l9.843-0.032
		c2.33,0,4.125,0.55,5.386,1.651c1.261,1.102,1.892,2.688,1.892,4.761c0,1.219-0.305,2.362-0.914,3.431
		c-0.609,1.069-1.459,1.988-2.549,2.757C162.345,67.518,163.884,69.74,165.423,71.792z M156.847,57.669
		c-0.438-0.416-1.149-0.646-2.132-0.689l-1.154,0.096l-0.128,5.354l2.34,0.129c0.599-0.278,1.037-0.652,1.315-1.122
		c0.277-0.47,0.417-1.09,0.417-1.86C157.504,58.722,157.285,58.086,156.847,57.669z"/>
	<path fill="#FFFFFF" d="M184.339,66.374c-0.022,2.351-0.813,4.157-2.373,5.418c-1.561,1.261-3.794,1.891-6.701,1.891
		c-2.8,0-4.943-0.63-6.428-1.891c-1.485-1.261-2.195-3.067-2.131-5.418l0.097-3.303l-0.193-10.516h6.445l-0.289,12.952
		c-0.021,1.09,0.186,1.881,0.625,2.373c0.438,0.492,1.15,0.737,2.133,0.737c1.004,0,1.731-0.246,2.18-0.737
		c0.449-0.492,0.663-1.283,0.641-2.373l-0.289-12.952h6.541l-0.225,10.516L184.339,66.374z"/>
	<path fill="#FFFFFF" d="M203.207,54.239c1.25,1.144,1.875,2.773,1.875,4.889c0,1.646-0.385,3.094-1.154,4.345
		c-0.77,1.25-1.86,2.223-3.27,2.917c-1.411,0.694-3.036,1.042-4.874,1.042h-1.571l0.224,5.867h-6.444l0.32-6.092l-0.32-14.651
		l9.842-0.032C200.165,52.523,201.956,53.095,203.207,54.239z M197.949,61.709c0.267-0.502,0.4-1.149,0.4-1.94
		c0-0.94-0.225-1.63-0.674-2.068c-0.448-0.438-1.154-0.678-2.116-0.721l-1.154,0.096l-0.129,5.739l2.405,0.129
		C197.259,62.623,197.68,62.211,197.949,61.709z"/>
	<path fill="#FFFFFF" d="M216.431,73.299l-0.577-3.431l-0.032-0.097l-3.143-0.064l-2.628,0.128l-0.545,3.463h-6.284l6.284-20.744
		h7.759l5.675,20.744H216.431z M213.449,58.294h-0.384l-1.796,6.797l1.796,0.032l1.795-0.032L213.449,58.294z"/>
	<path fill="#FFFFFF" d="M237.367,73.299h-12.344l0.32-6.092l-0.32-14.651h6.541l-0.353,14.011l0.064,1.475h6.123l0.354,0.449
		L237.367,73.299z"/>
	<path fill="#FFFFFF" d="M261.283,66.374c-0.021,2.351-0.813,4.157-2.373,5.418c-1.561,1.261-3.793,1.891-6.701,1.891
		c-2.8,0-4.942-0.63-6.428-1.891c-1.486-1.261-2.196-3.067-2.133-5.418l0.097-3.303l-0.192-10.516h6.445l-0.289,12.952
		c-0.021,1.09,0.188,1.881,0.625,2.373c0.438,0.492,1.149,0.737,2.132,0.737c1.005,0,1.732-0.246,2.181-0.737
		c0.448-0.492,0.663-1.283,0.641-2.373L255,52.556h6.54l-0.224,10.516L261.283,66.374z"/>
	<path fill="#FFFFFF" d="M278.82,53.293l-1.025,5.226l-0.899,0.384c-0.897-0.556-1.784-0.994-2.66-1.314
		c-0.878-0.321-1.583-0.48-2.116-0.48c-0.492,0-0.882,0.095-1.17,0.288c-0.288,0.193-0.432,0.449-0.432,0.77
		c0,0.406,0.218,0.753,0.656,1.042c0.438,0.289,1.171,0.668,2.197,1.139c1.197,0.534,2.18,1.031,2.95,1.49
		c0.769,0.461,1.442,1.091,2.019,1.892c0.576,0.801,0.864,1.791,0.864,2.966c0,1.304-0.357,2.484-1.073,3.542
		c-0.716,1.059-1.737,1.897-3.062,2.517c-1.326,0.62-2.865,0.93-4.617,0.93c-2.179,0-4.466-0.405-6.861-1.218l0.93-5.578
		l0.641-0.385c0.983,0.748,2.037,1.341,3.159,1.778c1.122,0.439,2.057,0.658,2.806,0.658c1.132,0,1.699-0.353,1.699-1.058
		c0-0.449-0.23-0.828-0.689-1.139c-0.46-0.309-1.203-0.689-2.228-1.138c-1.176-0.513-2.143-0.999-2.902-1.459
		c-0.759-0.459-1.416-1.09-1.971-1.891c-0.558-0.802-0.834-1.791-0.834-2.966c0-1.347,0.363-2.56,1.091-3.639
		c0.726-1.079,1.741-1.929,3.045-2.549c1.303-0.619,2.79-0.93,4.456-0.93C274.822,52.17,276.833,52.545,278.82,53.293z"/>
	<path fill="#FFFFFF" d="M296.871,68.618l-0.386,4.681h-14.619l0.321-6.092l-0.321-14.651h14.876l0.353,0.449l-0.417,4.68
		l-5.097-0.192h-3.303l-0.063,2.917h3.174l3.335-0.096l0.352,0.449l-0.385,4.681l-3.719-0.095h-2.885l-0.032,1.218l0.063,1.794
		h3.077l5.322-0.191L296.871,68.618z"/>
	<path fill="#FFFFFF" d="M317.485,71.792l-0.097,0.705c-2.18,0.663-4.328,1.059-6.444,1.187l-0.609-0.513
		c-1.368-2.928-2.286-4.947-2.757-6.059h-2.147l0.224,6.188h-6.444l0.321-6.092l-0.321-14.651l9.843-0.032
		c2.33,0,4.125,0.55,5.386,1.651c1.262,1.102,1.893,2.688,1.893,4.761c0,1.219-0.305,2.362-0.913,3.431
		c-0.609,1.069-1.46,1.988-2.55,2.757C314.408,67.518,315.946,69.74,317.485,71.792z M308.909,57.669
		c-0.438-0.416-1.149-0.646-2.132-0.689l-1.154,0.096l-0.129,5.354l2.341,0.129c0.599-0.278,1.036-0.652,1.315-1.122
		c0.276-0.47,0.416-1.09,0.416-1.86C309.566,58.722,309.347,58.086,308.909,57.669z"/>
	<path fill="#FFFFFF" d="M142.147,82.396l-1.378,5.675h-0.514c-1.069-0.535-1.993-0.919-2.773-1.154
		c-0.78-0.234-1.63-0.353-2.548-0.353c-0.984,0-1.737,0.161-2.26,0.481c-0.524,0.321-0.904,0.887-1.139,1.7
		c-0.235,0.812-0.353,1.988-0.353,3.526c0,1.561,0.117,2.752,0.353,3.575c0.235,0.824,0.636,1.4,1.202,1.731
		c0.566,0.332,1.383,0.497,2.453,0.497c0.299,0,0.684-0.042,1.154-0.127v-1.026l-0.096-3.494l5.867-0.417l-0.096,2.821v5.675
		c-2.48,0.941-4.948,1.41-7.406,1.41c-3.356,0-5.889-0.892-7.598-2.677c-1.71-1.784-2.565-4.333-2.565-7.646
		c0-3.633,1.01-6.401,3.03-8.304c2.02-1.902,4.911-2.854,8.672-2.854C138.46,81.435,140.459,81.755,142.147,82.396z"/>
	<path fill="#FFFFFF" d="M163.211,101.023l-0.097,0.706c-2.18,0.663-4.328,1.059-6.444,1.186l-0.609-0.513
		c-1.368-2.928-2.287-4.948-2.757-6.06h-2.148l0.225,6.188h-6.444l0.321-6.091l-0.321-14.651l9.843-0.032
		c2.329,0,4.125,0.551,5.385,1.651c1.261,1.101,1.893,2.688,1.893,4.761c0,1.218-0.304,2.361-0.913,3.43
		c-0.61,1.069-1.459,1.987-2.55,2.757C160.133,96.749,161.672,98.972,163.211,101.023z M154.634,86.901
		c-0.438-0.417-1.149-0.646-2.132-0.689l-1.154,0.097l-0.128,5.354l2.34,0.128c0.599-0.278,1.037-0.651,1.314-1.122
		c0.278-0.47,0.417-1.09,0.417-1.86C155.292,87.953,155.072,87.318,154.634,86.901z"/>
	<path fill="#FFFFFF" d="M180.844,84.08c1.646,1.785,2.468,4.301,2.468,7.55c0,3.591-0.903,6.369-2.709,8.335
		c-1.806,1.967-4.366,2.95-7.679,2.95c-3.014,0-5.343-0.902-6.988-2.709c-1.647-1.805-2.47-4.365-2.47-7.678
		c0-3.547,0.903-6.289,2.709-8.223s4.365-2.901,7.678-2.901C176.868,81.403,179.198,82.295,180.844,84.08z M171.386,86.965
		c-0.428,0.289-0.732,0.796-0.914,1.522c-0.181,0.727-0.272,1.785-0.272,3.174c0,1.774,0.096,3.121,0.289,4.04
		c0.192,0.919,0.518,1.561,0.977,1.924c0.46,0.363,1.139,0.545,2.037,0.545c0.833,0,1.463-0.144,1.891-0.434
		c0.427-0.288,0.731-0.8,0.914-1.539c0.182-0.738,0.272-1.8,0.272-3.189c0-1.753-0.096-3.088-0.288-4.008
		c-0.193-0.919-0.519-1.56-0.978-1.924c-0.46-0.363-1.139-0.545-2.036-0.545C172.444,86.532,171.813,86.676,171.386,86.965z"/>
	<path fill="#FFFFFF" d="M203.062,95.604c-0.021,2.353-0.812,4.159-2.373,5.418c-1.56,1.262-3.793,1.892-6.7,1.892
		c-2.8,0-4.943-0.63-6.428-1.892c-1.486-1.259-2.197-3.065-2.132-5.418l0.096-3.301l-0.192-10.516h6.444l-0.289,12.953
		c-0.021,1.09,0.187,1.88,0.625,2.372c0.438,0.492,1.149,0.737,2.132,0.737c1.004,0,1.731-0.245,2.18-0.737
		c0.449-0.491,0.663-1.282,0.642-2.372l-0.288-12.953h6.54l-0.224,10.516L203.062,95.604z"/>
	<path fill="#FFFFFF" d="M221.929,83.47c1.25,1.144,1.875,2.774,1.875,4.889c0,1.646-0.384,3.094-1.154,4.345
		c-0.769,1.25-1.859,2.222-3.27,2.917c-1.41,0.695-3.035,1.042-4.873,1.042h-1.57l0.224,5.867h-6.445l0.321-6.091l-0.321-14.651
		l9.843-0.032C218.888,81.755,220.679,82.327,221.929,83.47z M216.671,90.94c0.267-0.502,0.401-1.148,0.401-1.939
		c0-0.94-0.225-1.63-0.673-2.068c-0.449-0.438-1.154-0.679-2.116-0.722l-1.154,0.097L213,92.047l2.405,0.127
		C215.982,91.854,216.403,91.443,216.671,90.94z"/>
</g>
<g opacity="0.1">
	<defs>
		<path id="SVGID_5_" opacity="0.1" d="M60.468,34.843c4.192,5.736,2.869,15.045-3.778,20.149
			c-8.467,6.471-20.763,2.38-25.006,5.679c-3.586,2.807-5.219,15.195-8.641,17.766c-3.641,2.734-7.506-0.288-9.201-2.544
			c-1.695-2.259-4.029-6.884-4.197-10.746c-0.165-3.862,0.217-5.629,2.365-7.014c2.786-1.75,14.155,2.469,17.614,0.099
			c4.334-3.026,6.784-18.875,13.994-24.29c4.37-3.281,6.173-3.609,8.341-3.757C55.291,30.075,58.133,31.585,60.468,34.843
			L60.468,34.843z"/>
	</defs>
	<clipPath id="SVGID_6_">
		<use xlink:href="#SVGID_5_"  overflow="visible"/>
	</clipPath>
	<g clip-path="url(#SVGID_6_)">
		<path fill="#231F20" d="M60.665,34.822c-2.334-3.259-5.177-4.769-8.509-4.657c-0.645,0.043-1.258,0.105-1.916,0.254
			c3.136,0.037,5.826,1.55,8.054,4.66c4.193,5.736,2.869,15.045-3.778,20.15c-2.872,2.194-6.185,3.171-9.474,3.637
			c4.036-0.319,8.279-1.17,11.845-3.895C63.534,49.867,64.858,40.558,60.665,34.822z"/>
		<path fill="#231F20" d="M26.346,58.951c-4.557-0.007-11.288-1.97-13.781-1.01C16.533,58.08,23.021,59.86,26.346,58.951z"/>
		<path fill="#231F20" d="M29.51,60.907c-3.587,2.807-5.219,15.194-8.641,17.766c-0.468,0.351-0.939,0.605-1.41,0.781
			c1.22,0.167,2.514-0.087,3.78-1.037c3.423-2.572,5.055-14.959,8.642-17.766c0.791-0.616,1.863-0.973,3.137-1.191
			C32.691,59.609,30.754,59.94,29.51,60.907z"/>
	</g>
</g>
</svg>
